<svg width="67" height="35" viewBox="0 0 67 35" fill="none" xmlns="http://www.w3.org/2000/svg">
<path d="M0.648688 0.0159998C1.57669 0.0479994 2.79269 0.079999 4.29669 0.111999C5.83269 0.143998 7.36869 0.159998 8.90469 0.159998C10.5047 0.159998 12.0407 0.143998 13.5127 0.111999C14.9847 0.079999 16.0247 0.0639992 16.6327 0.0639992C19.8967 0.0639992 22.5847 0.367999 24.6967 0.975999C26.8407 1.584 28.4407 2.512 29.4967 3.76C30.5527 4.976 31.0807 6.528 31.0807 8.416C31.0807 9.6 30.8407 10.752 30.3607 11.872C29.8807 12.992 29.0647 14.016 27.9127 14.944C26.7607 15.84 25.1767 16.56 23.1607 17.104C21.1767 17.616 18.6487 17.872 15.5767 17.872H10.9687V16.912H15.0967C16.7287 16.912 17.9607 16.56 18.7927 15.856C19.6567 15.12 20.2327 14.16 20.5207 12.976C20.8407 11.76 21.0007 10.416 21.0007 8.944C21.0007 6.416 20.6487 4.464 19.9447 3.088C19.2727 1.68 18.0887 0.975999 16.3927 0.975999C15.3047 0.975999 14.6007 1.248 14.2807 1.792C13.9607 2.336 13.8007 3.44 13.8007 5.104V28.912C13.8007 30.064 13.8807 30.928 14.0407 31.504C14.2327 32.08 14.5687 32.464 15.0487 32.656C15.5287 32.848 16.2487 32.976 17.2087 33.04V34C16.2807 33.936 15.0807 33.904 13.6087 33.904C12.1687 33.872 10.6967 33.856 9.19269 33.856C7.46469 33.856 5.83269 33.872 4.29669 33.904C2.79269 33.904 1.57669 33.936 0.648688 34V33.04C1.64069 32.976 2.37669 32.848 2.85669 32.656C3.33669 32.464 3.65669 32.08 3.81669 31.504C3.97669 30.928 4.05669 30.064 4.05669 28.912V5.104C4.05669 3.92 3.97669 3.056 3.81669 2.512C3.65669 1.936 3.32069 1.552 2.80869 1.36C2.32869 1.136 1.60869 1.008 0.648688 0.975999V0.0159998ZM10.6807 17.056C11.8327 17.088 12.9207 17.152 13.9447 17.248C14.9687 17.344 15.9127 17.44 16.7767 17.536C17.6407 17.6 18.3767 17.648 18.9847 17.68C22.4087 17.84 24.9687 18.432 26.6647 19.456C28.3927 20.48 29.4487 21.984 29.8327 23.968L30.8407 28.96C31.0967 30.144 31.3847 30.96 31.7047 31.408C32.0247 31.856 32.4567 32.08 33.0007 32.08C33.3207 32.08 33.5927 32.032 33.8167 31.936C34.0407 31.84 34.2647 31.68 34.4887 31.456L35.1127 32.08C34.1207 33.072 33.0327 33.744 31.8487 34.096C30.6967 34.48 29.3847 34.672 27.9127 34.672C25.8327 34.672 24.1527 34.304 22.8727 33.568C21.5927 32.8 20.8087 31.44 20.5207 29.488L19.8007 24.688C19.6087 23.376 19.3687 22.208 19.0807 21.184C18.7927 20.16 18.4087 19.36 17.9287 18.784C17.4487 18.176 16.7927 17.872 15.9607 17.872H10.7767L10.6807 17.056ZM35.2424 0.0159998C36.1704 0.0479994 37.3864 0.079999 38.8904 0.111999C40.4264 0.143998 41.9624 0.159998 43.4984 0.159998C45.0984 0.159998 46.6344 0.143998 48.1064 0.111999C49.5784 0.079999 50.6184 0.0639992 51.2264 0.0639992C55.6104 0.0639992 58.8744 0.767999 61.0184 2.176C63.1624 3.584 64.2344 5.392 64.2344 7.6C64.2344 8.72 63.8344 9.888 63.0344 11.104C62.2344 12.288 61.0184 13.344 59.3864 14.272C57.7544 15.168 55.6744 15.776 53.1464 16.096V16.192C56.4424 16.352 59.0824 16.864 61.0664 17.728C63.0504 18.592 64.4904 19.648 65.3864 20.896C66.2824 22.112 66.7304 23.376 66.7304 24.688C66.7304 26.832 66.1544 28.592 65.0024 29.968C63.8504 31.344 62.1864 32.368 60.0104 33.04C57.8664 33.68 55.3064 34 52.3304 34C51.5624 34 50.4264 33.984 48.9224 33.952C47.4504 33.888 45.6744 33.856 43.5944 33.856C41.9944 33.856 40.4264 33.872 38.8904 33.904C37.3864 33.904 36.1704 33.936 35.2424 34V33.04C36.2344 32.976 36.9704 32.848 37.4504 32.656C37.9304 32.464 38.2504 32.08 38.4104 31.504C38.5704 30.928 38.6504 30.064 38.6504 28.912V5.104C38.6504 3.92 38.5704 3.056 38.4104 2.512C38.2504 1.936 37.9144 1.552 37.4024 1.36C36.9224 1.136 36.2024 1.008 35.2424 0.975999V0.0159998ZM50.9864 0.975999C49.8984 0.975999 49.1944 1.248 48.8744 1.792C48.5544 2.336 48.3944 3.44 48.3944 5.104V28.912C48.3944 30.032 48.4744 30.88 48.6344 31.456C48.7944 32.032 49.0984 32.416 49.5464 32.608C49.9944 32.8 50.6504 32.896 51.5144 32.896C53.3064 32.896 54.6024 32.176 55.4024 30.736C56.2344 29.264 56.6504 27.184 56.6504 24.496C56.6504 22.032 56.0584 20.128 54.8744 18.784C53.7224 17.44 51.7864 16.768 49.0664 16.768H45.5624C45.5624 16.768 45.5624 16.64 45.5624 16.384C45.5624 16.096 45.5624 15.952 45.5624 15.952H49.6904C50.9384 15.952 51.8984 15.6 52.5704 14.896C53.2424 14.16 53.7064 13.2 53.9624 12.016C54.2184 10.8 54.3464 9.504 54.3464 8.128C54.3464 5.76 54.0904 3.984 53.5784 2.8C53.0664 1.584 52.2024 0.975999 50.9864 0.975999Z" fill="white"/>
</svg>
